<svg xmlns="http://www.w3.org/2000/svg" width="1920" height="1080" viewBox="0 0 1920 1080">
  <defs>
    <style>
      .cls-1 {
        fill: #fff;
        fill-rule: evenodd;
      }
    </style>
  </defs>
  <path class="cls-1" d="M482.463,394.487V376.149h19.625v18.338H482.463Zm18.436,11a7.107,7.107,0,0,1-1.487,4.361,47.961,47.961,0,0,1-4.659,4.857,40.177,40.177,0,0,0-5.055,5.155,8.31,8.31,0,0,0-1.685,5.055,7,7,0,0,0,1.784,4.858,5.955,5.955,0,0,0,4.758,2.081q6.443,0,6.443-8.326a26.469,26.469,0,0,0-.1-2.677h18.238q0.1,0.694.2,1.586a20.246,20.246,0,0,1,.1,2.181,17.909,17.909,0,0,1-3.469,11,22.115,22.115,0,0,1-9.714,7.336,35.578,35.578,0,0,1-13.876,2.577,33.3,33.3,0,0,1-13.282-2.478,20.092,20.092,0,0,1-8.921-7.137A18.109,18.109,0,0,1,467,425.316a13.639,13.639,0,0,1,1.685-6.84,19.753,19.753,0,0,1,3.965-5.154,62.415,62.415,0,0,1,5.749-4.56,43.387,43.387,0,0,0,4.163-3.47,3.926,3.926,0,0,0,1.387-2.676v-2.082H500.9v4.957Zm26.6-11.2q0-17.347,9.515-26.268Q546.626,359,564.269,359t27.258,9.021q9.613,9.019,9.614,26.268,0,11.5-4.361,19.429a27.9,27.9,0,0,1-12.489,11.895l15.562,15.762H573.784l-10.506-11.8q-17.247-.3-26.564-9.218Q527.495,411.339,527.5,394.289Zm51.244-3.172q0-7.236-3.766-11.5-3.668-4.262-10.705-4.262t-10.705,4.262q-3.667,4.263-3.667,11.5v6.344q0,7.236,3.667,11.5t10.705,4.262q7.038,0,10.705-4.262,3.766-4.263,3.766-11.5v-6.344Zm102.093,9.814q0,13.977-8.822,21.312t-25.077,7.335q-16.255,0-25.176-7.335-8.822-7.335-8.822-21.312V360.19h21.906v40.443a13.4,13.4,0,0,0,3.072,9.219q3.073,3.37,8.921,3.37t8.921-3.469a12.992,12.992,0,0,0,3.172-9.12V360.19h21.9v40.741ZM695.5,360.19H754.48v16.356H717.409v9.417h31.718v15.662H717.409v10.408h37.764v16.356H695.5v-68.2Zm134.077,0q35.783,0,35.782,34.1t-35.782,34.1H800.043v-68.2h29.538Zm-7.632,51.843h7.235q13.778,0,13.778-14.77v-5.948q0-14.769-13.778-14.769h-7.235v35.487ZM877.19,360.19h58.976v16.356H899.1v9.417h31.719v15.662H899.1v10.408H936.86v16.356H877.19v-68.2ZM977.368,359q13.083,0,21.508,5.353,8.421,5.253,8.624,15.662V381.2H986.982v-0.4a6.417,6.417,0,0,0-2.181-4.956q-2.18-1.983-6.641-1.983a14.365,14.365,0,0,0-6.74,1.289q-2.279,1.288-2.279,3.172,0,2.676,3.171,3.965a61.108,61.108,0,0,0,10.21,2.676A101.166,101.166,0,0,1,996,388.54a22.526,22.526,0,0,1,9.318,5.947q3.96,4.164,4.06,11.3,0,12.093-8.22,17.942-8.133,5.849-21.81,5.848-15.959,0-24.879-5.352-8.822-5.354-8.822-18.934h20.716q0,5.156,2.677,6.939,2.676,1.686,8.326,1.685a22,22,0,0,0,6.839-.892,3.575,3.575,0,0,0,2.775-3.667q0-2.48-3.073-3.668a54.4,54.4,0,0,0-9.812-2.677,120.662,120.662,0,0,1-13.778-3.667A23.685,23.685,0,0,1,950.8,392.9q-4.065-4.459-4.064-12.093,0-11.2,8.623-16.455Q964.085,359,977.368,359Zm43.882,69.389v-68.2h21.9v68.2h-21.9ZM1091.29,359q15.165,0,23.99,7.633,8.82,7.533,8.82,21.609h-20.92q0-5.948-3.17-9.417-3.075-3.469-8.82-3.469-6.645,0-9.81,4.163-3.075,4.164-3.07,11.6v6.344q0,7.336,3.07,11.6,3.165,4.164,9.61,4.163,6.345,0,9.62-3.271t3.27-9.219h20.22q0,13.977-8.62,21.412-8.535,7.434-24.19,7.434-17.445,0-26.46-8.921-8.925-8.922-8.93-26.368t8.93-26.368Q1073.845,359,1091.29,359Zm45.63,69.389v-68.2h21.9v68.2h-21.9ZM1208.35,359q17.64,0,27.26,9.021t9.61,26.268q0,17.249-9.61,26.269t-27.26,9.02q-17.64,0-27.26-8.921-9.51-9.021-9.51-26.368t9.51-26.268Q1190.705,359,1208.35,359Zm0,16.356q-7.035,0-10.71,4.262t-3.66,11.5v6.344q0,7.236,3.66,11.5t10.71,4.262q7.035,0,10.7-4.262,3.78-4.263,3.77-11.5v-6.344q0-7.236-3.77-11.5Q1215.39,375.357,1208.35,375.356Zm97.43,53.033-28.64-33.108v33.108h-20.12v-68.2h19.13l28.64,33.6v-33.6h20.12v68.2h-19.13Zm33.8-68.2h58.98v16.356h-37.07v9.417h31.72v15.662h-31.72v10.408h37.76v16.356h-59.67v-68.2ZM1439.77,359q13.065,0,21.5,5.353,8.43,5.253,8.62,15.662V381.2h-20.51v-0.4a6.463,6.463,0,0,0-2.18-4.956q-2.19-1.983-6.65-1.983a14.323,14.323,0,0,0-6.73,1.289c-1.53.859-2.28,1.916-2.28,3.172,0,1.784,1.05,3.106,3.17,3.965a60.749,60.749,0,0,0,10.21,2.676,101.054,101.054,0,0,1,13.47,3.569,22.618,22.618,0,0,1,9.33,5.947q3.96,4.164,4.05,11.3,0,12.093-8.22,17.942-8.13,5.849-21.8,5.848-15.975,0-24.89-5.352-8.82-5.354-8.81-18.934h20.71q0,5.156,2.67,6.939,2.685,1.686,8.34,1.685a22.032,22.032,0,0,0,6.83-.892,3.579,3.579,0,0,0,2.78-3.667c0-1.653-1.02-2.875-3.08-3.668a54.29,54.29,0,0,0-9.81-2.677,120.539,120.539,0,0,1-13.78-3.667,23.567,23.567,0,0,1-9.51-6.444q-4.08-4.459-4.07-12.093,0-11.2,8.62-16.455Q1426.5,359,1439.77,359ZM596.723,467.577h55.11v16.356h-33.2v11.7h28.546v15.662H618.629v24.484H596.723v-68.2Zm67.1,68.2v-68.2h21.9v68.2h-21.9Zm86.3,0-28.646-33.108v33.108H701.36v-68.2h19.13l28.645,33.6v-33.6h20.122v68.2h-19.13Zm78.526,0-2.875-9.615H801.891l-2.875,9.615h-22.4l24.879-68.2h25.474l24.879,68.2H828.653Zm-22.2-24.88h14.769l-7.137-24.287h-0.4Zm102.422,24.88-28.645-33.108v33.108H860.105v-68.2h19.13l28.646,33.6v-33.6H928v68.2h-19.13Zm66.312-69.388q15.165,0,23.987,7.632,8.818,7.535,8.819,21.61H987.078q0-5.947-3.172-9.417-3.072-3.47-8.821-3.47-6.642,0-9.813,4.164-3.074,4.163-3.073,11.6v6.344q0,7.335,3.073,11.6,3.171,4.163,9.614,4.163,6.345,0,9.615-3.271t3.271-9.219h20.218q0,13.977-8.621,21.411-8.524,7.436-24.185,7.435-17.445,0-26.465-8.921-8.92-8.922-8.921-26.368t8.921-26.368Q957.738,466.387,975.184,466.388Zm45.626,69.388v-68.2h21.9v68.2h-21.9Zm37.53-68.2h58.98v16.356h-37.07v9.417h31.72v15.662h-31.72V519.42h37.76v16.356h-59.67v-68.2Zm136.26,20.916a19.9,19.9,0,0,1-3.37,11.3,19.5,19.5,0,0,1-9.81,7.435l15.16,28.548H1172l-12.09-24.88h-8.13v24.88h-21.9v-68.2h41.72a25.268,25.268,0,0,1,12.49,2.875,18.12,18.12,0,0,1,7.83,7.633A20.812,20.812,0,0,1,1194.6,488.493Zm-22.3.892a6.057,6.057,0,0,0-1.79-4.461,5.913,5.913,0,0,0-4.36-1.784h-14.37v12.589h14.37a5.913,5.913,0,0,0,4.36-1.784A6.394,6.394,0,0,0,1172.3,489.385Zm80.42,46.391-2.88-9.615h-23.89l-2.87,9.615h-22.4l24.88-68.2h25.47l24.88,68.2h-23.19Zm-22.21-24.88h14.77l-7.13-24.287h-0.4Zm82.3-44.508q13.1,0,21.51,5.352,8.43,5.255,8.63,15.662v1.19h-20.52v-0.4a6.433,6.433,0,0,0-2.18-4.956q-2.19-1.983-6.64-1.982a14.342,14.342,0,0,0-6.74,1.288q-2.28,1.288-2.28,3.172c0,1.785,1.05,3.106,3.17,3.965a61,61,0,0,0,10.21,2.677,101.267,101.267,0,0,1,13.48,3.568,22.586,22.586,0,0,1,9.32,5.948q3.96,4.164,4.06,11.3,0,12.095-8.23,17.942-8.13,5.849-21.8,5.849-15.96,0-24.88-5.353-8.82-5.352-8.82-18.933h20.71q0,5.154,2.68,6.939c1.78,1.123,4.56,1.685,8.32,1.685a22,22,0,0,0,6.84-.892,3.581,3.581,0,0,0,2.78-3.668c0-1.652-1.03-2.875-3.07-3.668a54.634,54.634,0,0,0-9.82-2.676,120.281,120.281,0,0,1-13.77-3.668,23.655,23.655,0,0,1-9.52-6.443q-4.065-4.461-4.06-12.094,0-11.2,8.62-16.455Q1299.54,466.388,1312.81,466.388Zm-758.1,126.023v50.753H532.809V592.411h-22.4V574.965h66.608v17.446h-22.3Zm62.792-18.636q17.643,0,27.258,9.021t9.615,26.268q0,17.249-9.615,26.269t-27.258,9.02q-17.643,0-27.258-8.921-9.515-9.021-9.515-26.368t9.515-26.268Q599.863,573.775,617.506,573.775Zm0,16.356q-7.036,0-10.7,4.262t-3.667,11.5v6.344q0,7.236,3.667,11.5t10.7,4.262q7.038,0,10.705-4.262,3.766-4.263,3.767-11.5v-6.344q0-7.236-3.767-11.5Q624.544,590.132,617.506,590.131Zm107.248,53.033V618.58q0-4.558.3-9.317,0.4-4.859.792-8.129t0.5-4.163h-0.4l-12.589,46.193H696.208L683.521,597.07h-0.4q0.1,0.892.5,4.163,0.5,3.173.892,8.03,0.4,4.758.4,9.317v24.584H664.787v-68.2h30.925l10.309,39.353h0.4l10.209-39.353h29.835v68.2H724.754Zm80.716,0-2.874-9.615H778.708l-2.874,9.615h-22.4l24.879-68.2h25.473l24.879,68.2H805.47Zm-22.2-24.881h14.769L790.9,594h-0.4Zm118.381-22.4a19.929,19.929,0,0,1-3.37,11.3,19.479,19.479,0,0,1-9.813,7.434l15.165,28.549H879.049l-12.093-24.881h-8.128v24.881h-21.9v-68.2h41.729a25.291,25.291,0,0,1,12.489,2.874,18.226,18.226,0,0,1,7.831,7.633A20.873,20.873,0,0,1,901.648,595.88Zm-22.3.893a6.053,6.053,0,0,0-1.784-4.461,5.931,5.931,0,0,0-4.361-1.784H858.828v12.589H873.2a5.931,5.931,0,0,0,4.361-1.785A6.389,6.389,0,0,0,879.346,596.773Zm80.418,46.391-2.875-9.615H933l-2.874,9.615h-22.4l24.879-68.2h25.474l24.878,68.2H959.764Zm-22.2-24.881H952.33L945.193,594h-0.4Zm82.3-44.508q13.08,0,21.51,5.353,8.43,5.253,8.62,15.662v1.189h-20.51v-0.4a6.405,6.405,0,0,0-2.19-4.956q-2.175-1.983-6.64-1.983a14.4,14.4,0,0,0-6.74,1.289q-2.28,1.289-2.28,3.172,0,2.676,3.18,3.965a60.848,60.848,0,0,0,10.2,2.676,101.447,101.447,0,0,1,13.49,3.569,22.543,22.543,0,0,1,9.31,5.948q3.975,4.163,4.07,11.3,0,12.093-8.23,17.942-8.13,5.848-21.81,5.848-15.96,0-24.876-5.352-8.822-5.353-8.821-18.934h20.717q0,5.156,2.67,6.939c1.79,1.124,4.56,1.685,8.33,1.685a21.969,21.969,0,0,0,6.84-.892,3.579,3.579,0,0,0,2.78-3.667q0-2.479-3.08-3.668a54.29,54.29,0,0,0-9.81-2.677,121.109,121.109,0,0,1-13.78-3.667,23.692,23.692,0,0,1-9.513-6.444q-4.064-4.46-4.064-12.093,0-11.2,8.623-16.455Q1006.577,573.775,1019.86,573.775Zm75.9,1.19h58.97v16.356h-37.07v9.417h31.72V616.4h-31.72v10.408h37.76v16.356h-59.66v-68.2Zm120.29,68.2-28.64-33.108v33.108h-20.12v-68.2h19.13l28.64,33.6v-33.6h20.12v68.2h-19.13Zm106.06-50.753v50.753h-21.9V592.411h-22.4V574.965h66.6v17.446h-22.3Zm100.19,23.3q0,13.977-8.83,21.312t-25.08,7.335q-16.245,0-25.17-7.335-8.835-7.335-8.82-21.312V574.965h21.9v40.443q0,5.75,3.08,9.219,3.06,3.371,8.92,3.37,5.835,0,8.92-3.469a13.009,13.009,0,0,0,3.17-9.12V574.965h21.91v40.741ZM715.492,682.352H770.6v16.356H737.4v11.7h28.546v15.662H737.4v24.484H715.492v-68.2ZM849.5,723.093q0,13.977-8.822,21.313T815.6,751.741q-16.255,0-25.176-7.335-8.822-7.336-8.822-21.313V682.352h21.9V722.8a13.4,13.4,0,0,0,3.073,9.219q3.073,3.37,8.921,3.37t8.921-3.469a12.991,12.991,0,0,0,3.171-9.12V682.352H849.5v40.741ZM903.422,699.8v50.753H881.516V699.8h-22.4V682.352h66.608V699.8h-22.3ZM1003.6,723.093q0,13.977-8.822,21.313T969.7,751.741q-16.255,0-25.176-7.335-8.821-7.336-8.822-21.313V682.352h21.906V722.8a13.4,13.4,0,0,0,3.072,9.219q3.073,3.37,8.921,3.37t8.921-3.469a12.992,12.992,0,0,0,3.172-9.12V682.352h21.9v40.741Zm79.39-19.825a19.9,19.9,0,0,1-3.37,11.3,19.417,19.417,0,0,1-9.81,7.435l15.17,28.548H1060.4l-12.1-24.88h-8.13v24.88h-21.9v-68.2H1060a25.3,25.3,0,0,1,12.49,2.875,18.228,18.228,0,0,1,7.83,7.633A20.907,20.907,0,0,1,1082.99,703.268Zm-22.3.892a6.049,6.049,0,0,0-1.78-4.461,5.929,5.929,0,0,0-4.36-1.784h-14.38V710.5h14.38a5.929,5.929,0,0,0,4.36-1.784A6.385,6.385,0,0,0,1060.69,704.16Zm66.98-23q17.64,0,27.26,9.02t9.61,26.269q0,17.247-9.61,26.268t-27.26,9.021q-17.64,0-27.26-8.921-9.51-9.021-9.51-26.368t9.51-26.269Q1110.025,681.162,1127.67,681.163Zm0,16.356q-7.035,0-10.71,4.262t-3.66,11.5v6.344q0,7.236,3.66,11.5,3.675,4.262,10.71,4.262t10.7-4.262q3.78-4.263,3.77-11.5V713.28q0-7.236-3.77-11.5Q1134.71,697.518,1127.67,697.519Zm72.06-16.356a33.292,33.292,0,0,1,13.28,2.478,20.084,20.084,0,0,1,8.92,7.137,18.069,18.069,0,0,1,3.17,10.606,14.222,14.222,0,0,1-1.68,6.939,20.31,20.31,0,0,1-3.97,5.056,62.573,62.573,0,0,1-5.74,4.56q-2.88,2.181-4.27,3.469a3.777,3.777,0,0,0-1.28,2.677v2.081h-16.95V721.21a6.7,6.7,0,0,1,1.48-4.263,41.82,41.82,0,0,1,4.66-4.956,35.079,35.079,0,0,0,4.96-5.155,8,8,0,0,0,1.78-5.055,6.992,6.992,0,0,0-1.78-4.857,5.96,5.96,0,0,0-4.76-2.082q-6.45,0-6.44,8.327a25.252,25.252,0,0,0,.1,2.676h-18.24c-0.07-.462-0.13-0.991-0.2-1.586a19.233,19.233,0,0,1-.1-2.181,17.929,17.929,0,0,1,3.47-11,22.187,22.187,0,0,1,9.61-7.335A36.384,36.384,0,0,1,1199.73,681.163Zm-9.71,69.388V732.213h19.62v18.338h-19.62Z"/>
</svg>
